<mxfile host="app.diagrams.net" agent="Mozilla/5.0 (Windows NT 10.0; Win64; x64) AppleWebKit/537.36 (KHTML, like Gecko) Chrome/130.0.0.0 Safari/537.36" version="24.8.4">
  <diagram id="C5RBs43oDa-KdzZeNtuy" name="Page-1">
    <mxGraphModel dx="880" dy="468" grid="1" gridSize="10" guides="1" tooltips="1" connect="1" arrows="1" fold="1" page="1" pageScale="1" pageWidth="827" pageHeight="1169" math="0" shadow="0">
      <root>
        <mxCell id="WIyWlLk6GJQsqaUBKTNV-0" />
        <mxCell id="WIyWlLk6GJQsqaUBKTNV-1" parent="WIyWlLk6GJQsqaUBKTNV-0" />
        <mxCell id="wYeCIi74Xols97AJiVBd-2" value="" style="edgeStyle=orthogonalEdgeStyle;rounded=0;orthogonalLoop=1;jettySize=auto;html=1;" edge="1" parent="WIyWlLk6GJQsqaUBKTNV-1" source="wYeCIi74Xols97AJiVBd-0" target="wYeCIi74Xols97AJiVBd-1">
          <mxGeometry relative="1" as="geometry" />
        </mxCell>
        <mxCell id="wYeCIi74Xols97AJiVBd-0" value="INICIO" style="ellipse;whiteSpace=wrap;html=1;" vertex="1" parent="WIyWlLk6GJQsqaUBKTNV-1">
          <mxGeometry x="260" y="40" width="160" height="100" as="geometry" />
        </mxCell>
        <mxCell id="wYeCIi74Xols97AJiVBd-4" value="" style="edgeStyle=orthogonalEdgeStyle;rounded=0;orthogonalLoop=1;jettySize=auto;html=1;" edge="1" parent="WIyWlLk6GJQsqaUBKTNV-1" source="wYeCIi74Xols97AJiVBd-1" target="wYeCIi74Xols97AJiVBd-3">
          <mxGeometry relative="1" as="geometry" />
        </mxCell>
        <mxCell id="wYeCIi74Xols97AJiVBd-1" value="&lt;div style=&quot;&quot;&gt;&lt;span style=&quot;background-color: initial;&quot;&gt;Definir tipo de cambio eur/ mxn=23,7&lt;/span&gt;&lt;/div&gt;&lt;div style=&quot;&quot;&gt;&lt;span style=&quot;background-color: initial;&quot;&gt;&lt;br&gt;&lt;/span&gt;&lt;/div&gt;&lt;div style=&quot;&quot;&gt;&lt;span style=&quot;background-color: initial;&quot;&gt;Definir tipo de cambio usd mxn=20,75&lt;/span&gt;&lt;/div&gt;" style="whiteSpace=wrap;html=1;aspect=fixed;align=center;fillColor=#dae8fc;strokeColor=#6c8ebf;" vertex="1" parent="WIyWlLk6GJQsqaUBKTNV-1">
          <mxGeometry x="270" y="170" width="120" height="120" as="geometry" />
        </mxCell>
        <mxCell id="wYeCIi74Xols97AJiVBd-7" value="" style="edgeStyle=orthogonalEdgeStyle;rounded=0;orthogonalLoop=1;jettySize=auto;html=1;" edge="1" parent="WIyWlLk6GJQsqaUBKTNV-1" source="wYeCIi74Xols97AJiVBd-3" target="wYeCIi74Xols97AJiVBd-6">
          <mxGeometry relative="1" as="geometry" />
        </mxCell>
        <mxCell id="wYeCIi74Xols97AJiVBd-3" value="&amp;nbsp; &amp;nbsp; Ingrese el monto que desea convertir:" style="shape=parallelogram;perimeter=parallelogramPerimeter;whiteSpace=wrap;html=1;fixedSize=1;align=left;fillColor=#f8cecc;strokeColor=#b85450;" vertex="1" parent="WIyWlLk6GJQsqaUBKTNV-1">
          <mxGeometry x="227.5" y="360" width="225" height="50" as="geometry" />
        </mxCell>
        <mxCell id="wYeCIi74Xols97AJiVBd-9" value="SI" style="edgeStyle=orthogonalEdgeStyle;rounded=0;orthogonalLoop=1;jettySize=auto;html=1;" edge="1" parent="WIyWlLk6GJQsqaUBKTNV-1" source="wYeCIi74Xols97AJiVBd-6" target="wYeCIi74Xols97AJiVBd-8">
          <mxGeometry relative="1" as="geometry">
            <Array as="points">
              <mxPoint x="470" y="540" />
              <mxPoint x="470" y="540" />
            </Array>
          </mxGeometry>
        </mxCell>
        <mxCell id="wYeCIi74Xols97AJiVBd-16" value="NO" style="edgeStyle=orthogonalEdgeStyle;rounded=0;orthogonalLoop=1;jettySize=auto;html=1;" edge="1" parent="WIyWlLk6GJQsqaUBKTNV-1" source="wYeCIi74Xols97AJiVBd-6" target="wYeCIi74Xols97AJiVBd-13">
          <mxGeometry relative="1" as="geometry" />
        </mxCell>
        <mxCell id="wYeCIi74Xols97AJiVBd-6" value="&amp;nbsp; &amp;nbsp; &amp;nbsp;tipo de conversion es a euro?" style="rhombus;whiteSpace=wrap;html=1;align=left;fillColor=#e1d5e7;strokeColor=#9673a6;" vertex="1" parent="WIyWlLk6GJQsqaUBKTNV-1">
          <mxGeometry x="245" y="470" width="190" height="140" as="geometry" />
        </mxCell>
        <mxCell id="wYeCIi74Xols97AJiVBd-12" value="" style="edgeStyle=orthogonalEdgeStyle;rounded=0;orthogonalLoop=1;jettySize=auto;html=1;" edge="1" parent="WIyWlLk6GJQsqaUBKTNV-1" source="wYeCIi74Xols97AJiVBd-8" target="wYeCIi74Xols97AJiVBd-11">
          <mxGeometry relative="1" as="geometry" />
        </mxCell>
        <mxCell id="wYeCIi74Xols97AJiVBd-8" value="monto que desea convertir de EUR a MXN" style="whiteSpace=wrap;html=1;align=center;fillColor=#dae8fc;strokeColor=#6c8ebf;" vertex="1" parent="WIyWlLk6GJQsqaUBKTNV-1">
          <mxGeometry x="510" y="510" width="120" height="60" as="geometry" />
        </mxCell>
        <mxCell id="wYeCIi74Xols97AJiVBd-11" value="&lt;blockquote style=&quot;margin: 0 0 0 40px; border: none; padding: 0px;&quot;&gt;Ingrese el monto que desea convertir:&lt;/blockquote&gt;" style="shape=parallelogram;perimeter=parallelogramPerimeter;whiteSpace=wrap;html=1;fixedSize=1;align=left;fillColor=#f8cecc;strokeColor=#b85450;" vertex="1" parent="WIyWlLk6GJQsqaUBKTNV-1">
          <mxGeometry x="680" y="510" width="140" height="60" as="geometry" />
        </mxCell>
        <mxCell id="wYeCIi74Xols97AJiVBd-17" value="SI" style="edgeStyle=orthogonalEdgeStyle;rounded=0;orthogonalLoop=1;jettySize=auto;html=1;" edge="1" parent="WIyWlLk6GJQsqaUBKTNV-1" source="wYeCIi74Xols97AJiVBd-13" target="wYeCIi74Xols97AJiVBd-14">
          <mxGeometry relative="1" as="geometry">
            <Array as="points">
              <mxPoint x="460" y="720" />
              <mxPoint x="460" y="720" />
            </Array>
          </mxGeometry>
        </mxCell>
        <mxCell id="wYeCIi74Xols97AJiVBd-21" value="" style="edgeStyle=orthogonalEdgeStyle;rounded=0;orthogonalLoop=1;jettySize=auto;html=1;" edge="1" parent="WIyWlLk6GJQsqaUBKTNV-1" source="wYeCIi74Xols97AJiVBd-13" target="wYeCIi74Xols97AJiVBd-20">
          <mxGeometry relative="1" as="geometry" />
        </mxCell>
        <mxCell id="wYeCIi74Xols97AJiVBd-13" value="&amp;nbsp; &amp;nbsp; &amp;nbsp;tipo de conversion es a euro?" style="rhombus;whiteSpace=wrap;html=1;align=left;fillColor=#e1d5e7;strokeColor=#9673a6;" vertex="1" parent="WIyWlLk6GJQsqaUBKTNV-1">
          <mxGeometry x="245" y="660" width="190" height="140" as="geometry" />
        </mxCell>
        <mxCell id="wYeCIi74Xols97AJiVBd-18" value="" style="edgeStyle=orthogonalEdgeStyle;rounded=0;orthogonalLoop=1;jettySize=auto;html=1;" edge="1" parent="WIyWlLk6GJQsqaUBKTNV-1" source="wYeCIi74Xols97AJiVBd-14" target="wYeCIi74Xols97AJiVBd-15">
          <mxGeometry relative="1" as="geometry" />
        </mxCell>
        <mxCell id="wYeCIi74Xols97AJiVBd-14" value="monto que desea convertir de USD a MXN" style="whiteSpace=wrap;html=1;align=center;fillColor=#dae8fc;strokeColor=#6c8ebf;" vertex="1" parent="WIyWlLk6GJQsqaUBKTNV-1">
          <mxGeometry x="510" y="690" width="120" height="60" as="geometry" />
        </mxCell>
        <mxCell id="wYeCIi74Xols97AJiVBd-15" value="&lt;blockquote style=&quot;margin: 0 0 0 40px; border: none; padding: 0px;&quot;&gt;Ingrese el monto que desea convertir:&lt;/blockquote&gt;" style="shape=parallelogram;perimeter=parallelogramPerimeter;whiteSpace=wrap;html=1;fixedSize=1;align=left;fillColor=#f8cecc;strokeColor=#b85450;" vertex="1" parent="WIyWlLk6GJQsqaUBKTNV-1">
          <mxGeometry x="675" y="690" width="140" height="60" as="geometry" />
        </mxCell>
        <mxCell id="wYeCIi74Xols97AJiVBd-23" value="" style="edgeStyle=orthogonalEdgeStyle;rounded=0;orthogonalLoop=1;jettySize=auto;html=1;" edge="1" parent="WIyWlLk6GJQsqaUBKTNV-1" source="wYeCIi74Xols97AJiVBd-20" target="wYeCIi74Xols97AJiVBd-22">
          <mxGeometry relative="1" as="geometry" />
        </mxCell>
        <mxCell id="wYeCIi74Xols97AJiVBd-20" value="No esta disponible este tipo de conversion actualmente&quot;" style="shape=parallelogram;perimeter=parallelogramPerimeter;whiteSpace=wrap;html=1;fixedSize=1;align=center;fillColor=#f8cecc;strokeColor=#b85450;" vertex="1" parent="WIyWlLk6GJQsqaUBKTNV-1">
          <mxGeometry x="230" y="900" width="190" height="110" as="geometry" />
        </mxCell>
        <mxCell id="wYeCIi74Xols97AJiVBd-22" value="FIN" style="ellipse;whiteSpace=wrap;html=1;fillColor=#f5f5f5;strokeColor=#666666;fontColor=#333333;" vertex="1" parent="WIyWlLk6GJQsqaUBKTNV-1">
          <mxGeometry x="285" y="1105" width="80" height="80" as="geometry" />
        </mxCell>
      </root>
    </mxGraphModel>
  </diagram>
</mxfile>
